<?xml version="1.0" encoding="UTF-8"?>
<svg width="16px" height="10px" viewBox="0 0 21 15" version="1.1" xmlns="http://www.w3.org/2000/svg" xmlns:xlink="http://www.w3.org/1999/xlink">
    <title>Group</title>
    <g id="Pay-with-etixpay" stroke="none" stroke-width="1" fill="none" fill-rule="evenodd" opacity="0.400000006">
        <g id="Login" transform="translate(-865.000000, -460.000000)" fill="#03014C">
            <g id="Group" transform="translate(865.015137, 460.533264)">
                <path d="M12.200281,9.07781393 C11.6146754,9.66341948 10.8204239,9.99240923 9.99225259,9.99240923 C9.16408128,9.99240923 8.36982976,9.66341948 7.78422421,9.07781393 C7.19861866,8.49220838 6.86962891,7.69795685 6.86962891,6.86978555 C6.86962891,6.04161424 7.19861866,5.24736272 7.78422421,4.66175717 C8.36982976,4.07615162 9.16408128,3.74716187 9.99225259,3.74716187 C10.8204239,3.74716187 11.6146754,4.07615162 12.200281,4.66175717 C12.7858865,5.24736272 13.1148763,6.04161424 13.1148763,6.86978555 L13.1148763,6.86978555 C13.1148763,7.69795685 12.7858865,8.49220838 12.200281,9.07781393 Z" id="Vector" fill-rule="nonzero"></path>
                <path d="M9.9923954,0 C14.1558935,0 17.486692,2.28992399 19.9847908,6.86977196 C17.486692,11.4496199 14.1558935,13.7395439 9.9923954,13.7395439 C5.82889732,13.7395439 2.49809885,11.4496199 0,6.86977196 C2.49809885,2.28992399 5.82889732,0 9.9923954,0 Z M13.0836348,9.96101139 C13.9034825,9.14116366 14.3640684,8.02921173 14.3640684,6.86977196 C14.3640684,5.71033219 13.9034825,4.59838025 13.0836348,3.77853253 C12.2637871,2.95868481 11.1518352,2.49809889 9.9923954,2.49809889 C8.83295565,2.49809889 7.72100373,2.95868481 6.90115603,3.77853253 C6.08130832,4.59838025 5.62072241,5.71033219 5.62072241,6.86977196 C5.62072241,8.02921173 6.08130832,9.14116366 6.90115603,9.96101139 C7.72100373,10.7808591 8.83295565,11.241445 9.9923954,11.241445 L9.9923954,11.241445 C11.1518352,11.241445 12.2637871,10.7808591 13.0836348,9.96101139 Z" id="Vector"></path>
            </g>
        </g>
    </g>
</svg>