<?xml version="1.0" encoding="UTF-8"?>
<svg width="14px" height="14px" viewBox="0 0 14 18" version="1.1" xmlns="http://www.w3.org/2000/svg" xmlns:xlink="http://www.w3.org/1999/xlink">
    <title>Vector</title>
    <g id="Pay-with-etixpay" stroke="none" stroke-width="1" fill="none" fill-rule="evenodd" opacity="0.5">
        <g id="Login" transform="translate(-550.000000, -457.000000)" fill="#03014C">
            <path d="M552.752982,461.574142 L552.752982,463.239542 L551.920282,463.239542 C551.001814,463.239542 550.254883,463.986473 550.254883,464.904941 L550.254883,472.399237 C550.254883,473.317705 551.001814,474.064636 551.920282,474.064636 L561.912677,474.064636 C562.831145,474.064636 563.578076,473.317705 563.578076,472.399237 L563.578076,464.904941 C563.578076,463.986473 562.831145,463.239542 561.912677,463.239542 L561.079978,463.239542 L561.079978,461.574142 C561.079978,459.27839 559.212232,457.410645 556.91648,457.410645 C554.620727,457.410645 552.752982,459.27839 552.752982,461.574142 Z M556.91648,459.076044 C558.293765,459.076044 559.414578,460.196857 559.414578,461.574142 L559.414578,463.239542 L554.418381,463.239542 L554.418381,461.574142 C554.418381,460.196857 555.539194,459.076044 556.91648,459.076044 Z M557.749179,472.399237 L557.749179,470.502348 C558.244635,470.213401 558.581879,469.682138 558.581879,469.068439 C558.581879,468.149971 557.834947,467.40304 556.91648,467.40304 C555.998012,467.40304 555.25108,468.149971 555.25108,469.068439 C555.25108,469.681306 555.588324,470.213401 556.08378,470.502348 L556.08378,472.399237 L551.920282,472.399237 L551.920282,464.904941 L561.912677,464.904941 L561.914343,472.399237 L561.914343,472.399237 L557.749179,472.399237 Z" id="Vector"></path>
        </g>
    </g>
</svg>