<?xml version="1.0" encoding="UTF-8"?>
<svg width="14px" height="13px" viewBox="0 0 21 18" version="1.1" xmlns="http://www.w3.org/2000/svg" xmlns:xlink="http://www.w3.org/1999/xlink">
    <title>menu_my_account</title>
    <defs>
        <polygon id="path-1" points="0.0002 0.7945 20.1492 0.7945 20.1492 8 0.0002 8"></polygon>
    </defs>
    <g id="Home" stroke="none" stroke-width="1" fill="none" fill-rule="evenodd">
        <g transform="translate(-318.000000, -1666.000000)" id="menu">
            <g transform="translate(0.000000, 1639.000000)">
                <g id="menu_my_account" transform="translate(318.000000, 27.000000)">
                    <path d="M14.3595,4.2851 C14.3595,6.6511 12.4415,8.5701 10.0745,8.5701 C7.7085,8.5701 5.7905,6.6511 5.7905,4.2851 C5.7905,1.9181 7.7085,0.0001 10.0745,0.0001 C12.4415,0.0001 14.3595,1.9181 14.3595,4.2851" id="Fill-1" fill="#B4BBCB"></path>
                    <g id="Group-5" transform="translate(0.000000, 9.085800)">
                        <mask id="mask-2" fill="white">
                            <use xlink:href="#path-1"></use>
                        </mask>
                        <g id="Clip-4"></g>
                        <path d="M14.4942,0.7945 L5.6552,0.7945 C2.5322,0.7945 0.0002,3.3265 0.0002,6.4495 L0.0002,8.0005 L20.1492,8.0005 L20.1492,6.4495 C20.1492,3.3265 17.6182,0.7945 14.4942,0.7945" id="Fill-3" fill="#B4BBCB" mask="url(#mask-2)"></path>
                    </g>
                </g>
            </g>
        </g>
    </g>
</svg>